<?xml version="1.0" encoding="UTF-8"?>
<!DOCTYPE svg PUBLIC "-//W3C//DTD SVG 1.1//EN" "http://www.w3.org/Graphics/SVG/1.1/DTD/svg11.dtd">
<!-- Creator: CorelDRAW -->
<svg xmlns="http://www.w3.org/2000/svg" xml:space="preserve" width="14.69mm" height="6.0791mm" version="1.1" style="shape-rendering:geometricPrecision; text-rendering:geometricPrecision; image-rendering:optimizeQuality; fill-rule:evenodd; clip-rule:evenodd"
viewBox="0 0 375.45 155.37"
 xmlns:xlink="http://www.w3.org/1999/xlink"
 xmlns:xodm="http://www.corel.com/coreldraw/odm/2003">
 <defs>
  <style type="text/css">
   <![CDATA[
    .fil0 {fill:red;fill-rule:nonzero}
   ]]>
  </style>
 </defs>
 <g id="Camada_x0020_1">
  <metadata id="CorelCorpID_0Corel-Layer"/>
  <path class="fil0" d="M40.17 65.3c9.46,0.7 14.23,4.63 14.23,11.78 0,5.36 0,10.74 0,16.1 0,5.36 0,10.74 0,16.08 0,12.77 -6.66,21.47 -19.64,27.47 -11.69,5.4 -23.2,11.9 -34.77,18.64 0,-25.88 0,-51.78 0,-77.67 0,-25.89 0,-51.8 0,-77.7 9.84,0 19.67,0 29.55,0 15.36,0 23.05,7.8 23.05,23.39 0,8.28 0,16.55 0,24.81 0,7.44 -4.17,12.77 -12.43,16.19 0,0.31 0,0.61 0,0.92zm-22.9 62.63c4.32,-2.04 8.64,-3.95 12.99,-5.81 4.54,-1.94 6.83,-4.82 6.83,-8.72 0,-10.02 0,-20.03 0,-30.05 0,-6.43 -3.42,-8.78 -10.25,-6.98 -3.19,0.84 -6.38,1.76 -9.57,2.69 0,8.16 0,16.3 0,24.44 0,8.14 0,16.28 0,24.43zm0 -66.48c2.7,-0.62 5.4,-1.24 8.11,-1.8 6.6,-1.36 9.91,-5.33 9.91,-11.93 0,-7.08 0,-14.18 0,-21.28 0,-6.57 -2.59,-9.74 -7.73,-9.43 -3.45,0.2 -6.87,0.43 -10.29,0.65 0,7.3 0,14.61 0,21.91 0,7.29 0,14.59 0,21.89zm48.1 -61.45c11.3,0 22.6,0 33.9,0 13.22,0 19.82,6.31 19.82,18.91 0,9.07 0,18.13 0,27.19 0,9.62 -3.45,16.07 -10.29,19.42 1.99,7.53 4.02,15.01 6.01,22.42 1.99,7.38 4.02,14.73 6.04,22.05 -5.48,0.96 -10.93,2.05 -16.37,3.17 -1.92,-7.19 -3.84,-14.45 -5.71,-21.77 -1.88,-7.38 -3.79,-14.81 -5.67,-22.3 -3.49,0.56 -6.99,1.13 -10.44,1.69 0,7.99 0,15.99 0,23.97 0,7.99 0,15.97 0,23.96 -5.78,1.79 -11.57,3.6 -17.31,5.61 0,-20.71 0,-41.44 0,-62.15 0,-20.71 0,-41.45 0,-62.18zm17.31 57.23c3.75,-0.5 7.54,-1.03 11.34,-1.49 5.18,-0.63 7.77,-3.63 7.77,-9.12 0,-8.19 0,-16.38 0,-24.58 0,-5.48 -2.59,-8.17 -7.77,-8.02 -3.79,0.11 -7.58,0.26 -11.34,0.39 0,7.15 0,14.28 0,21.41 0,7.13 0,14.26 0,21.41zm101.79 -57.23c0,14.14 0,28.26 0,42.4 0,14.12 0,28.25 0,42.39 0,13.21 -6.95,19.77 -20.88,20.42 -4.89,0.22 -9.77,0.61 -14.6,1.12 -13.82,1.46 -20.73,-4.43 -20.73,-18.27 0,-14.67 0,-29.35 0,-44.02 0,-14.67 0,-29.35 0,-44.03 5.74,0 11.53,0 17.31,0 0,14.47 0,28.95 0,43.4 0,14.45 0,28.92 0,43.36 0,4.66 2.51,6.73 7.55,6.36 2.32,-0.17 4.65,-0.29 7.02,-0.42 4.69,-0.27 7.06,-2.66 7.06,-7.24 0,-14.23 0,-28.48 0,-42.71 0,-14.23 0,-28.49 0,-42.74 5.75,0 11.49,0 17.27,0zm52.79 45.65c0,4.35 0,8.68 0,13.03 -7.58,-0.47 -15.13,-0.85 -22.68,-1.13 0,7.97 0,15.97 0,23.93 0,7.97 0,15.96 0,23.91 -5.78,-0.34 -11.56,-0.56 -17.31,-0.73 0,-17.43 0,-34.88 0,-52.31 0,-17.43 0,-34.9 0,-52.35 14.27,0 28.57,0 42.88,0 0,4.37 0,8.72 0,13.08 -8.52,-0.13 -17.05,-0.23 -25.57,-0.29 0,5.33 0,10.66 0,15.99 0,5.33 0,10.67 0,16 7.55,0.22 15.09,0.51 22.68,0.87zm52.26 72.17c-13.7,-3.53 -27.41,-6.48 -41.07,-8.83 0,-18.15 0,-36.33 0,-54.47 0,-18.16 0,-36.34 0,-54.52 5.74,0 11.49,0 17.27,0 0,16.42 0,32.86 0,49.27 0,16.41 0,32.83 0,49.24 7.92,1.51 15.84,3.14 23.8,5.05 0,4.77 0,9.52 0,14.26zm6.46 1.87c0,-19.94 0,-39.88 0,-59.82 0,-19.95 0,-39.9 0,-59.87 5.75,0 11.52,0 17.31,0 0,20.91 0,41.84 0,62.74 0,20.9 0,41.81 0,62.71 -5.78,-2.03 -11.56,-3.95 -17.31,-5.76zm79.11 35.45c-5.59,-3.26 -11.19,-6.51 -16.75,-9.51 -1.65,-10.04 -3.3,-20 -4.92,-29.79 -1.61,-9.69 -3.23,-19.27 -4.84,-28.71 -0.11,-0.03 -0.23,-0.08 -0.34,-0.09 -1.95,8.25 -3.89,16.4 -5.86,24.39 -1.94,7.88 -3.91,15.72 -5.86,23.44 -5.37,-2.38 -10.7,-4.61 -16.03,-6.73 2.7,-9.8 5.46,-19.79 8.15,-29.96 2.72,-10.26 5.48,-20.73 8.22,-31.42 -2.56,-11.59 -5.12,-23.02 -7.66,-34.21 -2.49,-11.02 -5.11,-21.86 -7.62,-32.57 5.63,0 11.27,0 16.93,0 1.61,8.42 3.24,16.9 4.84,25.48 1.62,8.68 3.23,17.46 4.88,26.35 0.11,0.02 0.23,0.05 0.34,0.06 1.8,-8.38 3.61,-16.86 5.41,-25.44 1.81,-8.68 3.6,-17.51 5.41,-26.46 5.33,0 10.7,0 16.07,0 -2.59,12.69 -5.2,25.13 -7.77,37.3 -2.53,11.95 -5.18,23.63 -7.74,35.15 2.52,13.13 5.05,26.52 7.55,40.2 2.54,13.9 5.03,28.09 7.59,42.49z"/>
 </g>
</svg>
